<svg width="64" height="63" viewBox="0 0 64 63" fill="none" xmlns="http://www.w3.org/2000/svg">
<ellipse cx="22" cy="21.5" rx="22" ry="21.5" transform="matrix(1 0 0 -1 10 53)" fill="black"/>
<path d="M18.8 47.2667V48.7H21.7333V47.2667H18.8ZM42.2667 47.2667V48.7H45.2V47.2667H42.2667ZM21.7333 47.2667V45.8333H18.8V47.2667H21.7333ZM29.0667 38.6667H34.9333V35.8H29.0667V38.6667ZM42.2667 45.8333V47.2667H45.2V45.8333H42.2667ZM34.9333 38.6667C36.8783 38.6667 38.7435 39.4217 40.1188 40.7657C41.494 42.1097 42.2667 43.9326 42.2667 45.8333H45.2C45.2 43.1723 44.1183 40.6203 42.193 38.7387C40.2676 36.8571 37.6562 35.8 34.9333 35.8V38.6667ZM21.7333 45.8333C21.7333 43.9326 22.506 42.1097 23.8812 40.7657C25.2565 39.4217 27.1217 38.6667 29.0667 38.6667V35.8C26.3438 35.8 23.7324 36.8571 21.807 38.7387C19.8817 40.6203 18.8 43.1723 18.8 45.8333H21.7333ZM32 18.6C30.0551 18.6 28.1898 19.3551 26.8146 20.6991C25.4393 22.0431 24.6667 23.8659 24.6667 25.7667H27.6C27.6 24.6262 28.0636 23.5325 28.8887 22.7261C29.7139 21.9197 30.833 21.4667 32 21.4667V18.6ZM39.3333 25.7667C39.3333 23.8659 38.5607 22.0431 37.1854 20.6991C35.8102 19.3551 33.9449 18.6 32 18.6V21.4667C33.167 21.4667 34.2861 21.9197 35.1113 22.7261C35.9364 23.5325 36.4 24.6262 36.4 25.7667H39.3333ZM32 32.9333C33.9449 32.9333 35.8102 32.1783 37.1854 30.8343C38.5607 29.4903 39.3333 27.6674 39.3333 25.7667H36.4C36.4 26.9071 35.9364 28.0008 35.1113 28.8072C34.2861 29.6136 33.167 30.0667 32 30.0667V32.9333ZM32 30.0667C30.833 30.0667 29.7139 29.6136 28.8887 28.8072C28.0636 28.0008 27.6 26.9071 27.6 25.7667H24.6667C24.6667 27.6674 25.4393 29.4903 26.8146 30.8343C28.1898 32.1783 30.0551 32.9333 32 32.9333V30.0667ZM32 50.1333C26.9432 50.1333 22.0935 48.1702 18.5178 44.6758C14.9421 41.1813 12.9333 36.4419 12.9333 31.5H10C10 37.2022 12.3179 42.6708 16.4437 46.7028C20.5695 50.7348 26.1652 53 32 53V50.1333ZM51.0667 31.5C51.0667 33.947 50.5735 36.37 49.6153 38.6307C48.6571 40.8914 47.2527 42.9455 45.4822 44.6758C43.7117 46.406 41.6098 47.7785 39.2965 48.715C36.9832 49.6514 34.5039 50.1333 32 50.1333V53C37.8348 53 43.4305 50.7348 47.5564 46.7028C51.6822 42.6708 54 37.2022 54 31.5H51.0667ZM32 12.8667C34.5039 12.8667 36.9832 13.3486 39.2965 14.285C41.6098 15.2215 43.7117 16.594 45.4822 18.3242C47.2527 20.0545 48.6571 22.1086 49.6153 24.3693C50.5735 26.63 51.0667 29.053 51.0667 31.5H54C54 25.7978 51.6822 20.3292 47.5564 16.2972C43.4305 12.2652 37.8348 10 32 10V12.8667ZM32 10C26.1652 10 20.5695 12.2652 16.4437 16.2972C12.3179 20.3292 10 25.7978 10 31.5H12.9333C12.9333 26.5581 14.9421 21.8187 18.5178 18.3242C22.0935 14.8298 26.9432 12.8667 32 12.8667V10Z" fill="#76D1BC"/>
</svg>
