<svg width="32" height="32" viewBox="0 0 32 32" fill="none" xmlns="http://www.w3.org/2000/svg">
<path d="M18.5234 18.9977V19.0007C19.037 19.0039 19.5442 19.1204 20.0078 19.3415C20.472 19.563 20.883 19.884 21.209 20.2819C21.5349 20.6799 21.7688 21.1463 21.8945 21.6452C22.0201 22.1439 22.0338 22.6648 21.9355 23.1696C21.8371 23.6746 21.629 24.1528 21.3252 24.568L21.2061 24.7204C20.9214 25.0673 20.5717 25.3574 20.1768 25.5729L20.0049 25.6598C19.5998 25.8526 19.1609 25.9658 18.7119 25.9928C18.1983 26.0236 17.683 25.9413 17.2051 25.7507V25.7497L4 21.0524V18.9967L18.5234 18.9977ZM17.9844 23.904L17.9834 23.9049C18.126 23.9575 18.2755 23.9891 18.4268 23.9967H18.5918C18.7566 23.9868 18.9183 23.9488 19.0703 23.8864L19.2197 23.8161C19.3645 23.737 19.4954 23.6344 19.6064 23.5133L19.7109 23.3864C19.841 23.2087 19.9305 23.0029 19.9727 22.7868C20.0146 22.5708 20.0078 22.3478 19.9541 22.1344C19.9003 21.921 19.8006 21.7208 19.6611 21.5505C19.5216 21.3801 19.3452 21.242 19.1465 21.1471C18.948 21.0526 18.7306 21.0029 18.5107 21.0016V20.9977H9.81445L17.9844 23.904ZM23.7715 8.99479C24.3827 8.95985 24.9938 9.06588 25.5576 9.30436C26.1214 9.54286 26.6237 9.90688 27.0244 10.3698C27.425 10.8327 27.7139 11.382 27.8691 11.9743C28.0243 12.5665 28.0419 13.1868 27.9199 13.7868L27.8672 14.0104C27.7309 14.5267 27.4924 15.0114 27.165 15.4352L27.0195 15.613C26.6694 16.0161 26.2415 16.3459 25.7607 16.5817C25.2128 16.8503 24.6102 16.9889 24 16.9889V16.9899H4V14.9899H23.9971V14.988C24.2264 14.9883 24.4539 14.9491 24.6689 14.8727L24.8799 14.7839C25.0858 14.6828 25.2724 14.547 25.4316 14.3835L25.5811 14.2116C25.7212 14.0302 25.8287 13.8259 25.8994 13.6091L25.958 13.3874C26.0036 13.1629 26.0107 12.9324 25.9785 12.7067L25.9326 12.4821C25.8551 12.1865 25.7107 11.9124 25.5107 11.6813C25.3106 11.4501 25.0599 11.2673 24.7783 11.1481C24.4967 11.029 24.1911 10.9764 23.8857 10.9938C23.5807 11.0113 23.2837 11.0984 23.0176 11.2487L22.0322 9.50554C22.5652 9.20437 23.1604 9.02978 23.7715 8.99479Z" fill="url(#paint0_linear_49_1669)"/>
<path d="M6.52051 9.74316L7.41406 9.58594L7.25684 10.4795L8 11L7.25684 11.5205L7.41406 12.4141L6.52051 12.2568L6 13L5.47949 12.2568L4.58594 12.4141L4.74316 11.5205L4 11L4.74316 10.4795L4.58594 9.58594L5.47949 9.74316L6 9L6.52051 9.74316ZM12.6924 9.74316L13.5859 9.58594L13.4277 10.4795L14.1719 11L13.4277 11.5205L13.5859 12.4141L12.6924 12.2568L12.1719 13L11.6514 12.2568L10.7578 12.4141L10.915 11.5205L10.1719 11L10.915 10.4795L10.7578 9.58594L11.6514 9.74316L12.1719 9L12.6924 9.74316ZM18.6924 9.74316L19.5859 9.58594L19.4277 10.4795L20.1719 11L19.4277 11.5205L19.5859 12.4141L18.6924 12.2568L18.1719 13L17.6514 12.2568L16.7578 12.4141L16.915 11.5205L16.1719 11L16.915 10.4795L16.7578 9.58594L17.6514 9.74316L18.1719 9L18.6924 9.74316ZM9.52051 5.74316L10.4141 5.58594L10.2568 6.47949L11 7L10.2568 7.52051L10.4141 8.41406L9.52051 8.25684L9 9L8.47949 8.25684L7.58594 8.41406L7.74316 7.52051L7 7L7.74316 6.47949L7.58594 5.58594L8.47949 5.74316L9 5L9.52051 5.74316ZM15.5205 5.74316L16.4141 5.58594L16.2568 6.47949L17 7L16.2568 7.52051L16.4141 8.41406L15.5205 8.25684L15 9L14.4795 8.25684L13.5859 8.41406L13.7432 7.52051L13 7L13.7432 6.47949L13.5859 5.58594L14.4795 5.74316L15 5L15.5205 5.74316Z" fill="url(#paint1_linear_49_1669)"/>
<path fill-rule="evenodd" clip-rule="evenodd" d="M23.018 11.2478L23.0172 11.2483L22.0336 9.50681L22.0325 9.5048L22.0345 9.50369C22.567 9.20315 23.1613 9.02872 23.7718 8.99382C23.8603 8.98876 23.9489 8.98665 24.0373 8.98748C24.559 8.99234 25.0757 9.0993 25.5579 9.30325C26.1218 9.54177 26.6234 9.90656 27.0241 10.3695C27.4248 10.8325 27.7139 11.3813 27.8692 11.9737C28.0245 12.5661 28.0417 13.1862 27.9197 13.7863C27.7976 14.3864 27.5395 14.9504 27.1651 15.435C26.8451 15.8493 26.4474 16.1961 25.9952 16.4564C25.9185 16.5005 25.8403 16.5422 25.7606 16.5813C25.2108 16.8508 24.6066 16.9905 23.9944 16.9897V16.9895H4V14.9895H23.9972L23.9972 14.9872C24.303 14.9876 24.6049 14.9178 24.8795 14.7832C25.1541 14.6486 25.3941 14.4527 25.5811 14.2106C25.7681 13.9685 25.897 13.6868 25.958 13.387C26.019 13.0872 26.0104 12.7775 25.9328 12.4816C25.8552 12.1857 25.7108 11.9115 25.5106 11.6802C25.3105 11.449 25.0599 11.2667 24.7782 11.1476C24.4966 11.0284 24.1913 10.9756 23.886 10.993C23.581 11.0105 23.2841 11.0976 23.018 11.2478ZM17.2058 25.7504L4 21.0523V18.9978L18.5239 18.9978V19.0008C19.0376 19.0041 19.5443 19.1204 20.008 19.3417C20.1866 19.4268 20.357 19.5268 20.5178 19.6401C20.7752 19.8217 21.0076 20.0376 21.2083 20.2827C21.5344 20.6809 21.7686 21.1461 21.8943 21.6452C22.0201 22.1442 22.0342 22.6649 21.9357 23.1701C21.8372 23.6753 21.6286 24.1525 21.3246 24.5678C21.0206 24.983 20.6288 25.3261 20.1771 25.5726C19.8991 25.7243 19.6026 25.837 19.2959 25.9085C19.1043 25.9532 18.9088 25.9817 18.7113 25.9936C18.1977 26.0244 17.6836 25.9415 17.2057 25.7508L17.2058 25.7504ZM9.8151 20.998L18.5103 20.998L18.5103 21.0014L18.5103 21.0017L18.5112 21.0017C18.7312 21.0031 18.9483 21.053 19.1468 21.1477C19.3457 21.2426 19.5212 21.3802 19.6608 21.5507C19.8005 21.7212 19.9008 21.9204 19.9546 22.1341C20.0085 22.3478 20.0145 22.5708 19.9723 22.7871C19.9302 23.0035 19.8408 23.2078 19.7106 23.3856C19.5805 23.5635 19.4127 23.7104 19.2193 23.8159C19.0258 23.9215 18.8115 23.983 18.5916 23.9962C18.3847 24.0086 18.1776 23.9779 17.9835 23.9063L17.9842 23.9042L9.8151 20.998Z" fill="url(#paint2_linear_49_1669)"/>
<path fill-rule="evenodd" clip-rule="evenodd" d="M11 7L10.2565 7.52045L10.4142 8.41421L9.52045 8.25648L9 9L8.47955 8.25648L7.58579 8.41421L7.74352 7.52045L7 7L7.74352 6.47955L7.58579 5.58579L8.47955 5.74352L9 5L9.52045 5.74352L10.4142 5.58579L10.2565 6.47955L11 7ZM14.1716 11L13.4281 11.5204L13.5858 12.4142L12.6921 12.2565L12.1716 13L11.6512 12.2565L10.7574 12.4142L10.9152 11.5204L10.1716 11L10.9152 10.4796L10.7574 9.58579L11.6512 9.74352L12.1716 9L12.6921 9.74352L13.5858 9.58579L13.4281 10.4796L14.1716 11ZM19.4281 11.5204L20.1716 11L19.4281 10.4796L19.5858 9.58579L18.6921 9.74352L18.1716 9L17.6512 9.74352L16.7574 9.58579L16.9152 10.4796L16.1716 11L16.9152 11.5204L16.7574 12.4142L17.6512 12.2565L18.1716 13L18.6921 12.2565L19.5858 12.4142L19.4281 11.5204ZM17 7L16.2565 7.52045L16.4142 8.41421L15.5204 8.25648L15 9L14.4796 8.25648L13.5858 8.41421L13.7435 7.52045L13 7L13.7435 6.47955L13.5858 5.58579L14.4796 5.74352L15 5L15.5204 5.74352L16.4142 5.58579L16.2565 6.47955L17 7ZM7.25648 11.5204L8 11L7.25648 10.4796L7.41421 9.58579L6.52045 9.74352L6 9L5.47955 9.74352L4.58579 9.58579L4.74352 10.4796L4 11L4.74352 11.5204L4.58579 12.4142L5.47955 12.2565L6 13L6.52045 12.2565L7.41421 12.4142L7.25648 11.5204Z" fill="url(#paint3_linear_49_1669)"/>
<defs>
<linearGradient id="paint0_linear_49_1669" x1="16" y1="8.98828" x2="16" y2="25.9991" gradientUnits="userSpaceOnUse">
<stop stop-color="#CED3EA"/>
<stop offset="1" stop-color="#7E83A9"/>
</linearGradient>
<linearGradient id="paint1_linear_49_1669" x1="12.0859" y1="5" x2="12.0859" y2="13" gradientUnits="userSpaceOnUse">
<stop stop-color="#B2D4F7"/>
<stop offset="1" stop-color="#D9E2F3"/>
</linearGradient>
<linearGradient id="paint2_linear_49_1669" x1="16" y1="8.9873" x2="16" y2="25.9998" gradientUnits="userSpaceOnUse">
<stop stop-color="#CED3EA"/>
<stop offset="1" stop-color="#7E83A9"/>
</linearGradient>
<linearGradient id="paint3_linear_49_1669" x1="12.0858" y1="5" x2="12.0858" y2="13" gradientUnits="userSpaceOnUse">
<stop stop-color="#B2D4F7"/>
<stop offset="1" stop-color="#D9E2F3"/>
</linearGradient>
</defs>
</svg>
