<svg width="32" height="32" viewBox="0 0 32 32" fill="none" xmlns="http://www.w3.org/2000/svg">
<path d="M18.967 5.79785C22.9699 6.00077 26.1536 9.31093 26.1536 13.3643L26.1428 13.7539C26.0814 14.9642 25.7342 16.0986 25.1702 17.0938C24.5393 16.8119 23.8528 16.6334 23.1311 16.5791C23.774 15.6703 24.1535 14.562 24.1536 13.3643C24.1536 10.2848 21.6568 7.7882 18.5774 7.78809C16.621 7.78823 14.9006 8.79655 13.9055 10.3213C13.2167 10.1599 12.499 10.0723 11.761 10.0723C11.7581 10.0723 11.7551 10.0723 11.7522 10.0723C12.9772 7.5371 15.5732 5.78825 18.5774 5.78809L18.967 5.79785ZM30.0002 14.3643H27.5647V12.3643H30.0002V14.3643ZM28.9778 8.54785L26.8684 9.76562L25.8684 8.03418L27.9778 6.81641L28.9778 8.54785ZM15.0383 5.13184L13.3059 6.13184L12.0881 4.02246L13.8206 3.02246L15.0383 5.13184ZM25.1838 4.02246L23.9661 6.13184L22.2346 5.13184L23.4524 3.02246L25.1838 4.02246ZM19.636 4.43555H17.636V2H19.636V4.43555Z" fill="url(#paint0_linear_49_555)"/>
<path d="M12.5 8.25C17.0809 8.25 20.9737 11.2893 22.4082 15.5264C22.6032 15.5094 22.8008 15.5 23 15.5C26.8658 15.5003 30 18.7461 30 22.75C30 26.6703 26.9953 29.8612 23.2412 29.9932V30H12.6973V29.9961C12.6316 29.9973 12.5659 30 12.5 30C6.70101 30 2 25.1311 2 19.125C2 13.1189 6.70101 8.25 12.5 8.25ZM12.5 10.25C7.87115 10.25 4 14.1567 4 19.125C4 24.0933 7.87115 28 12.5 28C12.5137 28 12.5273 27.9991 12.541 27.999V28H22.9971V27.999L23 28C25.6957 27.9997 28 25.7161 28 22.75C28 19.7839 25.6957 17.5003 23 17.5C22.2688 17.5001 21.5661 17.6685 20.9307 17.9727C20.8444 17.2855 20.6836 16.6233 20.4541 15.9951C20.5398 15.9604 20.6265 15.9277 20.7139 15.8965C20.6272 15.9274 20.5411 15.9597 20.4561 15.9941C19.2354 12.6103 16.0974 10.25 12.5 10.25Z" fill="url(#paint1_linear_49_555)"/>
<path d="M18.967 5.79785C22.9699 6.00077 26.1536 9.31093 26.1536 13.3643L26.1428 13.7539C26.0814 14.9642 25.7342 16.0986 25.1702 17.0938C24.5393 16.8119 23.8528 16.6334 23.1311 16.5791C23.774 15.6703 24.1535 14.562 24.1536 13.3643C24.1536 10.2848 21.6568 7.7882 18.5774 7.78809C16.621 7.78823 14.9006 8.79655 13.9055 10.3213C13.2167 10.1599 12.499 10.0723 11.761 10.0723C11.7581 10.0723 11.7551 10.0723 11.7522 10.0723C12.9772 7.5371 15.5732 5.78825 18.5774 5.78809L18.967 5.79785ZM30.0002 14.3643H27.5647V12.3643H30.0002V14.3643ZM28.9778 8.54785L26.8684 9.76562L25.8684 8.03418L27.9778 6.81641L28.9778 8.54785ZM15.0383 5.13184L13.3059 6.13184L12.0881 4.02246L13.8206 3.02246L15.0383 5.13184ZM25.1838 4.02246L23.9661 6.13184L22.2346 5.13184L23.4524 3.02246L25.1838 4.02246ZM19.636 4.43555H17.636V2H19.636V4.43555Z" fill="url(#paint2_linear_49_555)"/>
<path d="M12.5 8.25C17.0809 8.25 20.9737 11.2893 22.4082 15.5264C22.6032 15.5094 22.8008 15.5 23 15.5C26.8658 15.5003 30 18.7461 30 22.75C30 26.6703 26.9953 29.8612 23.2412 29.9932V30H12.6973V29.9961C12.6316 29.9973 12.5659 30 12.5 30C6.70101 30 2 25.1311 2 19.125C2 13.1189 6.70101 8.25 12.5 8.25ZM12.5 10.25C7.87115 10.25 4 14.1567 4 19.125C4 24.0933 7.87115 28 12.5 28C12.5137 28 12.5273 27.9991 12.541 27.999V28H22.9971V27.999L23 28C25.6957 27.9997 28 25.7161 28 22.75C28 19.7839 25.6957 17.5003 23 17.5C22.2688 17.5001 21.5661 17.6685 20.9307 17.9727C20.8444 17.2855 20.6836 16.6233 20.4541 15.9951C20.5398 15.9604 20.6265 15.9277 20.7139 15.8965C20.6272 15.9274 20.5411 15.9597 20.4561 15.9941C19.2354 12.6103 16.0974 10.25 12.5 10.25Z" fill="url(#paint3_linear_49_555)"/>
<defs>
<linearGradient id="paint0_linear_49_555" x1="20.8762" y1="2" x2="20.8762" y2="17.0938" gradientUnits="userSpaceOnUse">
<stop stop-color="#EFC977"/>
<stop offset="1" stop-color="#E07256"/>
</linearGradient>
<linearGradient id="paint1_linear_49_555" x1="16" y1="8.25" x2="16" y2="30" gradientUnits="userSpaceOnUse">
<stop stop-color="#B2D4F7"/>
<stop offset="1" stop-color="#D9E2F3"/>
</linearGradient>
<linearGradient id="paint2_linear_49_555" x1="20.8762" y1="2" x2="20.8762" y2="17.0938" gradientUnits="userSpaceOnUse">
<stop stop-color="#EFC977"/>
<stop offset="1" stop-color="#E07256"/>
</linearGradient>
<linearGradient id="paint3_linear_49_555" x1="16" y1="8.25" x2="16" y2="30" gradientUnits="userSpaceOnUse">
<stop stop-color="#B2D4F7"/>
<stop offset="1" stop-color="#D9E2F3"/>
</linearGradient>
</defs>
</svg>
