<svg width="32" height="32" viewBox="0 0 32 32" fill="none" xmlns="http://www.w3.org/2000/svg">
<path d="M23.1685 2.00977C26.9739 2.20254 30.0005 5.34876 30.0005 9.20215L29.9907 9.57227C29.9075 11.2157 29.2721 12.7129 28.2681 13.8848C27.9539 13.2541 27.5481 12.6776 27.0669 12.1729C27.6543 11.3304 28.0005 10.307 28.0005 9.20215C28.0005 6.32919 25.6713 4.00013 22.7983 4C21.4839 4 20.2835 4.48791 19.3677 5.29199C18.8418 4.85703 18.2718 4.47364 17.6636 4.15234C18.9701 2.82402 20.788 2 22.7983 2L23.1685 2.00977Z" fill="url(#paint0_linear_49_1216)"/>
<path d="M14.375 24C14.3931 24.0251 15.8756 26.0809 15.876 27.4092L15.8682 27.5723C15.7914 28.3742 15.1525 29 14.376 29L14.2227 28.9922C13.5168 28.9162 12.9559 28.3208 12.8838 27.5723L12.876 27.4092C12.8755 25.9091 14.375 24 14.375 24ZM19.3896 24C19.4025 24.0178 20.8902 26.0785 20.8906 27.4092L20.8828 27.5723C20.806 28.3742 20.1671 29 19.3906 29L19.2373 28.9922C18.5316 28.9161 17.9706 28.3207 17.8984 27.5723L17.8906 27.4092C17.8902 25.9091 19.3896 24 19.3896 24ZM11.5 19C11.5002 19.0002 13.0006 21.0728 13.001 22.4092L12.9932 22.5723C12.9164 23.3741 12.2783 23.9998 11.502 24L11.3486 23.9922C10.6428 23.9162 10.0809 23.3208 10.0088 22.5723L10.001 22.4092C10.0005 20.9091 11.5 19 11.5 19ZM16.5 19C16.5002 19.0002 18.0006 21.0728 18.001 22.4092L17.9932 22.5723C17.9164 23.3741 17.2783 23.9998 16.502 24L16.3486 23.9922C15.6428 23.9162 15.0809 23.3208 15.0088 22.5723L15.001 22.4092C15.0005 20.9091 16.5 19 16.5 19ZM21.5 19C21.5002 19.0002 23.0006 21.0728 23.001 22.4092L22.9932 22.5723C22.9164 23.3741 22.2783 23.9998 21.502 24L21.3486 23.9922C20.6428 23.9162 20.0809 23.3208 20.0088 22.5723L20.001 22.4092C20.0005 20.9091 21.5 19 21.5 19ZM13.1543 2.01465C17.774 2.25753 21.612 5.56524 22.8193 10.0156C22.9616 10.0063 23.1055 10 23.25 10L23.5967 10.0088C27.1635 10.1963 30 13.2548 30 17L29.9912 17.3604C29.8407 20.4386 27.7718 22.9898 25 23.7598V21.6436C26.7311 20.9189 28 19.1516 28 17C28 14.1699 25.8057 12.0004 23.25 12C22.5274 12 21.8334 12.1736 21.21 12.4863C21.1745 11.8359 21.0677 11.2054 20.9053 10.5996C19.8939 6.7585 16.5189 4.00005 12.6084 4C7.92191 4 4 7.96046 4 13C4 16.2284 5.6111 19.0115 8 20.5967V22.9072C4.45007 21.1287 2 17.3622 2 13C2 6.92487 6.7496 2 12.6084 2L13.1543 2.01465Z" fill="url(#paint1_linear_49_1216)"/>
<defs>
<linearGradient id="paint0_linear_49_1216" x1="23.832" y1="2" x2="23.832" y2="13.8848" gradientUnits="userSpaceOnUse">
<stop stop-color="#EFC977"/>
<stop offset="1" stop-color="#E07256"/>
</linearGradient>
<linearGradient id="paint1_linear_49_1216" x1="16" y1="2" x2="16" y2="29" gradientUnits="userSpaceOnUse">
<stop stop-color="#95B6F6"/>
<stop offset="1" stop-color="#5193DE"/>
</linearGradient>
</defs>
</svg>
