<svg width="44" height="44" viewBox="0 0 44 44" fill="none" xmlns="http://www.w3.org/2000/svg">
<circle cx="22" cy="22" r="22" fill="white"/>
<path d="M23.9384 11C22.6091 11 21.3342 11.5874 20.3942 12.633C19.4542 13.6786 18.9261 15.0967 18.9261 16.5753V19.6795H16.2438C16.1095 19.6795 16 19.8 16 19.9507V24.0493C16 24.1988 16.1084 24.3205 16.2438 24.3205H18.9261V32.7288C18.9261 32.8782 19.0345 33 19.17 33H22.8547C22.9891 33 23.0985 32.8795 23.0985 32.7288V24.3205H25.8046C25.9163 24.3205 26.0138 24.2362 26.0409 24.1156L26.9621 20.017C26.9711 19.977 26.9719 19.9352 26.9642 19.8949C26.9566 19.8545 26.9408 19.8166 26.918 19.7841C26.8952 19.7515 26.8661 19.7252 26.8328 19.707C26.7995 19.6889 26.7629 19.6795 26.7258 19.6795H23.0985V16.5753C23.0985 16.4527 23.1202 16.3312 23.1625 16.2178C23.2047 16.1045 23.2665 16.0015 23.3445 15.9147C23.4225 15.828 23.5151 15.7592 23.617 15.7122C23.7189 15.6653 23.8281 15.6411 23.9384 15.6411H26.7562C26.8905 15.6411 27 15.5205 27 15.3699V11.2712C27 11.1218 26.8916 11 26.7562 11H23.9384Z" fill="black"/>
</svg>
