<svg width="44" height="44" viewBox="0 0 44 44" fill="none" xmlns="http://www.w3.org/2000/svg">
<circle cx="22" cy="22" r="22" fill="white"/>
<path d="M17.38 11H26.62C30.14 11 33 13.86 33 17.38V26.62C33 28.3121 32.3278 29.9349 31.1313 31.1313C29.9349 32.3278 28.3121 33 26.62 33H17.38C13.86 33 11 30.14 11 26.62V17.38C11 15.6879 11.6722 14.0651 12.8687 12.8687C14.0651 11.6722 15.6879 11 17.38 11ZM17.16 13.2C16.1097 13.2 15.1025 13.6172 14.3599 14.3599C13.6172 15.1025 13.2 16.1097 13.2 17.16V26.84C13.2 29.029 14.971 30.8 17.16 30.8H26.84C27.8903 30.8 28.8975 30.3828 29.6401 29.6401C30.3828 28.8975 30.8 27.8903 30.8 26.84V17.16C30.8 14.971 29.029 13.2 26.84 13.2H17.16ZM27.775 14.85C28.1397 14.85 28.4894 14.9949 28.7473 15.2527C29.0051 15.5106 29.15 15.8603 29.15 16.225C29.15 16.5897 29.0051 16.9394 28.7473 17.1973C28.4894 17.4551 28.1397 17.6 27.775 17.6C27.4103 17.6 27.0606 17.4551 26.8027 17.1973C26.5449 16.9394 26.4 16.5897 26.4 16.225C26.4 15.8603 26.5449 15.5106 26.8027 15.2527C27.0606 14.9949 27.4103 14.85 27.775 14.85ZM22 16.5C23.4587 16.5 24.8576 17.0795 25.8891 18.1109C26.9205 19.1424 27.5 20.5413 27.5 22C27.5 23.4587 26.9205 24.8576 25.8891 25.8891C24.8576 26.9205 23.4587 27.5 22 27.5C20.5413 27.5 19.1424 26.9205 18.1109 25.8891C17.0795 24.8576 16.5 23.4587 16.5 22C16.5 20.5413 17.0795 19.1424 18.1109 18.1109C19.1424 17.0795 20.5413 16.5 22 16.5ZM22 18.7C21.1248 18.7 20.2854 19.0477 19.6665 19.6665C19.0477 20.2854 18.7 21.1248 18.7 22C18.7 22.8752 19.0477 23.7146 19.6665 24.3335C20.2854 24.9523 21.1248 25.3 22 25.3C22.8752 25.3 23.7146 24.9523 24.3335 24.3335C24.9523 23.7146 25.3 22.8752 25.3 22C25.3 21.1248 24.9523 20.2854 24.3335 19.6665C23.7146 19.0477 22.8752 18.7 22 18.7Z" fill="black"/>
</svg>
