<svg width="20" height="20" viewBox="0 0 20 20" fill="none" xmlns="http://www.w3.org/2000/svg">
<path d="M5.21094 10.9062H9.21875V14.9141C9.21875 15.0301 9.31367 15.125 9.42969 15.125H10.6953C10.8113 15.125 10.9062 15.0301 10.9062 14.9141V10.9062H14.9141C15.0301 10.9062 15.125 10.8113 15.125 10.6953V9.42969C15.125 9.31367 15.0301 9.21875 14.9141 9.21875H10.9062V5.21094C10.9062 5.09492 10.8113 5 10.6953 5H9.42969C9.31367 5 9.21875 5.09492 9.21875 5.21094V9.21875H5.21094C5.09492 9.21875 5 9.31367 5 9.42969V10.6953C5 10.8113 5.09492 10.9062 5.21094 10.9062Z" fill="#444444"/>
<path d="M19.2 0H0.8C0.3575 0 0 0.3575 0 0.8V19.2C0 19.6425 0.3575 20 0.8 20H19.2C19.6425 20 20 19.6425 20 19.2V0.8C20 0.3575 19.6425 0 19.2 0ZM18.2 18.2H1.8V1.8H18.2V18.2Z" fill="#444444"/>
</svg>
