<svg width="44" height="43" viewBox="0 0 44 43" fill="none" xmlns="http://www.w3.org/2000/svg">
<path d="M8.8 37.2667V38.7H11.7333V37.2667H8.8ZM32.2667 37.2667V38.7H35.2V37.2667H32.2667ZM11.7333 37.2667V35.8333H8.8V37.2667H11.7333ZM19.0667 28.6667H24.9333V25.8H19.0667V28.6667ZM32.2667 35.8333V37.2667H35.2V35.8333H32.2667ZM24.9333 28.6667C26.8783 28.6667 28.7435 29.4217 30.1188 30.7657C31.494 32.1097 32.2667 33.9326 32.2667 35.8333H35.2C35.2 33.1723 34.1183 30.6203 32.193 28.7387C30.2676 26.8571 27.6562 25.8 24.9333 25.8V28.6667ZM11.7333 35.8333C11.7333 33.9326 12.506 32.1097 13.8812 30.7657C15.2565 29.4217 17.1217 28.6667 19.0667 28.6667V25.8C16.3438 25.8 13.7324 26.8571 11.807 28.7387C9.88166 30.6203 8.8 33.1723 8.8 35.8333H11.7333ZM22 8.6C20.0551 8.6 18.1898 9.35506 16.8146 10.6991C15.4393 12.0431 14.6667 13.8659 14.6667 15.7667H17.6C17.6 14.6262 18.0636 13.5325 18.8887 12.7261C19.7139 11.9197 20.833 11.4667 22 11.4667V8.6ZM29.3333 15.7667C29.3333 13.8659 28.5607 12.0431 27.1854 10.6991C25.8102 9.35506 23.9449 8.6 22 8.6V11.4667C23.167 11.4667 24.2861 11.9197 25.1113 12.7261C25.9364 13.5325 26.4 14.6262 26.4 15.7667H29.3333ZM22 22.9333C23.9449 22.9333 25.8102 22.1783 27.1854 20.8343C28.5607 19.4903 29.3333 17.6674 29.3333 15.7667H26.4C26.4 16.9071 25.9364 18.0008 25.1113 18.8072C24.2861 19.6136 23.167 20.0667 22 20.0667V22.9333ZM22 20.0667C20.833 20.0667 19.7139 19.6136 18.8887 18.8072C18.0636 18.0008 17.6 16.9071 17.6 15.7667H14.6667C14.6667 17.6674 15.4393 19.4903 16.8146 20.8343C18.1898 22.1783 20.0551 22.9333 22 22.9333V20.0667ZM22 40.1333C16.9432 40.1333 12.0935 38.1702 8.51783 34.6758C4.94214 31.1813 2.93333 26.4419 2.93333 21.5H0C0 27.2022 2.31785 32.6708 6.44365 36.7028C10.5695 40.7348 16.1652 43 22 43V40.1333ZM41.0667 21.5C41.0667 23.947 40.5735 26.37 39.6153 28.6307C38.6571 30.8914 37.2527 32.9455 35.4822 34.6758C33.7117 36.406 31.6098 37.7785 29.2965 38.715C26.9832 39.6514 24.5039 40.1333 22 40.1333V43C27.8348 43 33.4305 40.7348 37.5564 36.7028C41.6822 32.6708 44 27.2022 44 21.5H41.0667ZM22 2.86667C24.5039 2.86667 26.9832 3.34863 29.2965 4.28504C31.6098 5.22146 33.7117 6.59398 35.4822 8.32424C37.2527 10.0545 38.6571 12.1086 39.6153 14.3693C40.5735 16.63 41.0667 19.053 41.0667 21.5H44C44 15.7978 41.6822 10.3292 37.5564 6.2972C33.4305 2.26517 27.8348 0 22 0V2.86667ZM22 0C16.1652 0 10.5695 2.26517 6.44365 6.2972C2.31785 10.3292 0 15.7978 0 21.5H2.93333C2.93333 16.5581 4.94214 11.8187 8.51783 8.32424C12.0935 4.82982 16.9432 2.86667 22 2.86667V0Z" fill="black"/>
</svg>
