<svg width="32" height="32" viewBox="0 0 32 32" fill="none" xmlns="http://www.w3.org/2000/svg">
<path d="M23.1685 2.00977C26.9739 2.20254 30.0005 5.34876 30.0005 9.20215L29.9907 9.57227C29.9075 11.2157 29.2721 12.7129 28.2681 13.8848C27.9539 13.2541 27.5481 12.6776 27.0669 12.1729C27.6543 11.3304 28.0005 10.307 28.0005 9.20215C28.0005 6.32919 25.6713 4.00013 22.7983 4C21.4839 4 20.2835 4.48791 19.3677 5.29199C18.8418 4.85703 18.2718 4.47364 17.6636 4.15234C18.9701 2.82402 20.788 2 22.7983 2L23.1685 2.00977Z" fill="url(#paint0_linear_49_1002)"/>
<path d="M13.5 22C13.5 22 16.0013 25.3172 16.002 27.4561L15.9893 27.7168C15.8614 29.0003 14.7971 30.0017 13.5029 30.002L13.2471 29.9893C12.0707 29.8674 11.1347 28.9147 11.0146 27.7168L11.002 27.4561C11.0012 25.0636 13.4829 22.0209 13.5 22ZM13.4746 25.7979C13.1764 26.4465 13.0018 27.0284 13.002 27.4561C13.0021 27.792 13.2599 28.0018 13.502 28.002C13.7441 28.0019 14.0021 27.792 14.002 27.4561C14.0019 27.2721 13.9385 26.9264 13.7432 26.417C13.6657 26.215 13.5742 26.0074 13.4746 25.7979ZM19.5 19C19.5 19 22.0013 22.3172 22.002 24.4561L21.9893 24.7168C21.8614 26.0003 20.7971 27.0017 19.5029 27.002L19.2471 26.9893C18.0707 26.8674 17.1347 25.9147 17.0146 24.7168L17.002 24.4561C17.0012 22.0636 19.4829 19.0209 19.5 19ZM19.4746 22.7979C19.1764 23.4465 19.0018 24.0284 19.002 24.4561C19.0021 24.792 19.2599 25.0018 19.502 25.002C19.7441 25.0019 20.0021 24.792 20.002 24.4561C20.0019 24.2721 19.9385 23.9264 19.7432 23.417C19.6657 23.215 19.5742 23.0074 19.4746 22.7979ZM13.1543 2.01465C17.774 2.25753 21.612 5.56524 22.8193 10.0156C22.9616 10.0063 23.1055 10 23.25 10L23.5967 10.0088C27.1635 10.1963 30 13.2548 30 17L29.9912 17.3604C29.823 20.7989 27.2617 23.5807 24 23.9551V21.9346C26.2204 21.5593 28 19.5486 28 17C28 14.1699 25.8057 12.0004 23.25 12C22.5274 12 21.8334 12.1736 21.21 12.4863C21.1745 11.8359 21.0677 11.2054 20.9053 10.5996C19.8939 6.7585 16.5189 4.00005 12.6084 4C7.92191 4 4 7.96046 4 13C4 17.0655 6.55292 20.427 10 21.5752V23.6631C5.40258 22.4577 2 18.1417 2 13C2 6.92487 6.7496 2 12.6084 2L13.1543 2.01465Z" fill="url(#paint1_linear_49_1002)"/>
<defs>
<linearGradient id="paint0_linear_49_1002" x1="23.832" y1="2" x2="23.832" y2="13.8848" gradientUnits="userSpaceOnUse">
<stop stop-color="#EFC977"/>
<stop offset="1" stop-color="#E07256"/>
</linearGradient>
<linearGradient id="paint1_linear_49_1002" x1="16" y1="2" x2="16" y2="30.0021" gradientUnits="userSpaceOnUse">
<stop stop-color="#95B6F6"/>
<stop offset="1" stop-color="#5193DE"/>
</linearGradient>
</defs>
</svg>
