<svg width="32" height="32" viewBox="0 0 32 32" fill="none" xmlns="http://www.w3.org/2000/svg">
<path d="M19.6021 5.4862C20.5601 2.92426 23.3252 1.4619 26.02 2.18445L26.2847 2.26257C26.492 2.32958 26.6918 2.41052 26.8853 2.49988C25.8134 2.67464 24.8945 3.46412 24.6108 4.58386C24.4706 5.13782 24.5061 5.69498 24.6812 6.19714C24.6838 6.2074 24.6852 6.21817 24.688 6.22839L24.7612 6.44617C24.8454 6.66043 24.9631 6.86213 25.1108 7.03992L25.2671 7.20886C25.344 7.28349 25.427 7.35168 25.5142 7.41394C25.8323 7.68563 26.215 7.89307 26.6479 8.00281C28.0024 8.34552 29.3721 7.63992 29.9116 6.39929C30.0529 7.16191 30.0318 7.96738 29.8179 8.76648L29.7388 9.03308C29.2464 10.5573 28.1261 11.7209 26.7456 12.3143C25.7189 11.492 24.4169 10.9989 22.9995 10.9989C22.9326 10.9989 22.8657 11.0016 22.7993 11.0038C22.7325 10.6735 22.6478 10.3497 22.5493 10.0321C22.8966 10.305 23.3031 10.514 23.7563 10.6356C24.9092 10.9447 26.0826 10.6148 26.9038 9.86413C26.8984 9.86436 26.8926 9.86496 26.8872 9.86511L26.6636 9.86609C26.1395 9.85231 25.6222 9.74098 25.1401 9.53796L24.937 9.44519C24.4653 9.21617 24.0404 8.90048 23.6851 8.51648L23.5366 8.34851C23.2016 7.94518 22.945 7.4816 22.7798 6.98523L22.7153 6.77136C22.5566 6.19329 22.5229 5.5871 22.6167 4.99499C22.6372 4.86578 22.6645 4.73749 22.6968 4.6112C22.0697 5.05011 21.5873 5.70471 21.3735 6.50281C21.2969 6.78928 21.2598 7.07699 21.2583 7.36023C20.7856 6.66819 20.229 6.03844 19.6021 5.4862Z" fill="url(#paint0_linear_49_1081)"/>
<path d="M13.5 22C13.5 22 16.0013 25.3172 16.002 27.4561L15.9893 27.7168C15.8614 29.0003 14.7971 30.0017 13.5029 30.002L13.2471 29.9893C12.0707 29.8674 11.1347 28.9147 11.0146 27.7168L11.002 27.4561C11.0012 25.0636 13.4829 22.0209 13.5 22ZM13.4746 25.7979C13.1764 26.4465 13.0018 27.0284 13.002 27.4561C13.0021 27.792 13.2599 28.0018 13.502 28.002C13.7441 28.0019 14.0021 27.792 14.002 27.4561C14.0019 27.2721 13.9385 26.9264 13.7432 26.417C13.6657 26.215 13.5742 26.0074 13.4746 25.7979ZM19.5 19C19.5 19 22.0013 22.3172 22.002 24.4561L21.9893 24.7168C21.8614 26.0003 20.7971 27.0017 19.5029 27.002L19.2471 26.9893C18.0707 26.8674 17.1347 25.9147 17.0146 24.7168L17.002 24.4561C17.0012 22.0636 19.4829 19.0209 19.5 19ZM19.4746 22.7979C19.1764 23.4465 19.0018 24.0284 19.002 24.4561C19.0021 24.792 19.2599 25.0018 19.502 25.002C19.7441 25.0019 20.0021 24.792 20.002 24.4561C20.0019 24.2721 19.9385 23.9264 19.7432 23.417C19.6657 23.215 19.5742 23.0074 19.4746 22.7979ZM13.1543 2.01465C17.774 2.25753 21.612 5.56524 22.8193 10.0156C22.9616 10.0063 23.1055 10 23.25 10L23.5967 10.0088C27.1635 10.1963 30 13.2548 30 17L29.9912 17.3604C29.823 20.7989 27.2617 23.5807 24 23.9551V21.9346C26.2204 21.5593 28 19.5486 28 17C28 14.1699 25.8057 12.0004 23.25 12C22.5274 12 21.8334 12.1736 21.21 12.4863C21.1745 11.8359 21.0677 11.2054 20.9053 10.5996C19.8939 6.7585 16.5189 4.00005 12.6084 4C7.92191 4 4 7.96046 4 13C4 17.0655 6.55292 20.427 10 21.5752V23.6631C5.40258 22.4577 2 18.1417 2 13C2 6.92487 6.7496 2 12.6084 2L13.1543 2.01465Z" fill="url(#paint1_linear_49_1081)"/>
<defs>
<linearGradient id="paint0_linear_49_1081" x1="24.8017" y1="2" x2="24.8017" y2="12.3143" gradientUnits="userSpaceOnUse">
<stop stop-color="#F5BD52"/>
<stop offset="1" stop-color="#F5DA79"/>
</linearGradient>
<linearGradient id="paint1_linear_49_1081" x1="16" y1="2" x2="16" y2="30.0021" gradientUnits="userSpaceOnUse">
<stop stop-color="#95B6F6"/>
<stop offset="1" stop-color="#5193DE"/>
</linearGradient>
</defs>
</svg>
