<svg width="40" height="40" viewBox="0 0 40 40" fill="none" xmlns="http://www.w3.org/2000/svg">
<path fill-rule="evenodd" clip-rule="evenodd" d="M30 29.9465C34.2188 29.4625 37.5 25.7536 37.5 21.25C37.5 16.4175 33.722 12.5 29.0616 12.5C28.8818 12.5 28.7033 12.5058 28.5263 12.5173C26.9576 6.73721 21.8362 2.5 15.7604 2.5C8.43686 2.5 2.5 8.65608 2.5 16.25C2.5 22.6774 6.75297 28.0747 12.5 29.5813V26.9715C8.19076 25.5364 5 21.3322 5 16.25C5 9.95058 9.90224 5 15.7604 5C20.7298 5 25.0114 8.56255 26.1961 13.4889L26.1998 13.4874C26.3671 14.1709 26.4738 14.8796 26.5135 15.6068C27.2924 15.2165 28.159 15 29.0616 15C32.2566 15 35 17.712 35 21.25C35 24.4358 32.7756 26.9519 30 27.4212V29.9465ZM16.8776 35.0027C17.1803 35.0027 17.5028 34.7401 17.5026 34.3201C17.5026 34.09 17.4236 33.6578 17.1794 33.021C17.0821 32.7671 16.9683 32.5057 16.843 32.2422C16.4691 33.0546 16.2519 33.7846 16.2521 34.3201C16.2522 34.7401 16.5749 35.0027 16.8776 35.0027ZM15.3654 29.6966C16.1286 28.4128 16.8753 27.5 16.8753 27.5C16.8753 27.5 17.5873 28.4443 18.3319 29.7222C19.1475 31.1221 20.0022 32.9224 20.0026 34.3201C20.0032 36.0778 18.6044 37.5027 16.8783 37.5027C15.1523 37.5027 13.7526 36.0778 13.7521 34.3201C13.7516 32.7862 14.5675 31.0387 15.3654 29.6966ZM25.0026 30.5701C25.0028 30.9901 24.6803 31.2527 24.3776 31.2527C24.0749 31.2527 23.7522 30.9901 23.7521 30.5701C23.7519 30.0346 23.9691 29.3046 24.343 28.4922C24.4683 28.7557 24.5821 29.0171 24.6794 29.271C24.9236 29.9078 25.0026 30.34 25.0026 30.5701ZM24.3753 23.75C24.3753 23.75 23.6286 24.6628 22.8654 25.9466C22.0675 27.2887 21.2516 29.0362 21.2521 30.5701C21.2526 32.3278 22.6523 33.7527 24.3783 33.7527C26.1044 33.7527 27.5032 32.3278 27.5026 30.5701C27.5022 29.1724 26.6475 27.3721 25.8319 25.9722C25.0873 24.6943 24.3753 23.75 24.3753 23.75Z" fill="black"/>
</svg>
