<svg width="40" height="40" viewBox="0 0 40 40" fill="none" xmlns="http://www.w3.org/2000/svg">
<path fill-rule="evenodd" clip-rule="evenodd" d="M2.5 16.25C2.5 21.7034 5.56173 26.4154 10 28.6384V25.7503C7.01274 23.769 5 20.2864 5 16.25C5 9.95058 9.90224 5 15.7604 5C20.7298 5 25.0114 8.56255 26.1961 13.4889L26.1998 13.4874C26.3671 14.1709 26.4738 14.8796 26.5135 15.6068C27.2924 15.2165 28.159 15 29.0616 15C32.2566 15 35 17.712 35 21.25C35 23.3881 33.9981 25.2246 32.5 26.3431V29.243C35.4466 27.8781 37.5 24.8127 37.5 21.25C37.5 19.1823 36.8083 17.2821 35.6518 15.7846C36.8066 14.3814 37.5 12.5842 37.5 10.625C37.5 6.13769 33.8623 2.5 29.375 2.5C27.0439 2.5 24.942 3.48174 23.4603 5.05433C21.2896 3.44622 18.6315 2.5 15.7604 2.5C8.43686 2.5 2.5 8.65608 2.5 16.25ZM25.3227 6.72383C26.8117 8.33049 27.9277 10.3116 28.5263 12.5173C28.7033 12.5058 28.8818 12.5 29.0616 12.5C30.8375 12.5 32.4853 13.0689 33.8447 14.0405C34.5694 13.0935 35 11.9095 35 10.625C35 7.5184 32.4816 5 29.375 5C27.7833 5 26.3459 5.66116 25.3227 6.72383ZM24.2814 24.9747C24.0714 25.3385 23.6608 25.4046 23.3987 25.2532C23.1366 25.1018 22.9885 24.7131 23.1985 24.3493C23.4661 23.8855 24.0193 23.362 24.7493 22.8455C24.7261 23.1363 24.6939 23.4196 24.6512 23.6881C24.5441 24.3618 24.3964 24.7755 24.2814 24.9747ZM27.149 18.7551C27.149 18.7551 26.0459 19.1721 24.743 19.9021C23.3808 20.6653 21.8003 21.7705 21.0336 23.099C20.155 24.6213 20.6544 26.5552 22.149 27.4185C23.6437 28.2817 25.5676 27.7474 26.4462 26.2251C27.1449 25.0145 27.3051 23.0281 27.299 21.408C27.2933 19.929 27.149 18.7551 27.149 18.7551ZM16.0278 26.2469C15.8179 26.6106 15.4073 26.6767 15.1452 26.5253C14.883 26.3739 14.7349 25.9852 14.9449 25.6214C15.2126 25.1577 15.7657 24.6341 16.4958 24.1176C16.4725 24.4084 16.4403 24.6917 16.3976 24.9602C16.2906 25.6339 16.1428 26.0476 16.0278 26.2469ZM18.8955 20.0273C18.8955 20.0273 17.7924 20.4443 16.4894 21.1742C15.1273 21.9374 13.5467 23.0426 12.78 24.3711C11.9014 25.8934 12.4008 27.8273 13.8955 28.6906C15.3901 29.5538 17.3141 29.0195 18.1927 27.4972C18.8914 26.2866 19.0516 24.3003 19.0454 22.6801C19.0398 21.2011 18.8955 20.0273 18.8955 20.0273ZM26.2165 32.9195C26.4786 33.0709 26.8892 33.0048 27.0991 32.641C27.2141 32.4418 27.3619 32.028 27.469 31.3544C27.5116 31.0859 27.5438 30.8026 27.5671 30.5118C26.837 31.0283 26.2839 31.5518 26.0162 32.0156C25.8063 32.3794 25.9544 32.7681 26.2165 32.9195ZM27.5608 27.5684C28.8637 26.8384 29.9668 26.4214 29.9668 26.4214C29.9668 26.4214 30.1111 27.5953 30.1167 29.0743C30.1229 30.6944 29.9627 32.6808 29.264 33.8914C28.3854 35.4137 26.4615 35.948 24.9668 35.0848C23.4721 34.2215 22.9727 32.2876 23.8513 30.7653C24.6181 29.4368 26.1986 28.3316 27.5608 27.5684ZM18.7012 34.6434C18.4913 35.0072 18.0807 35.0732 17.8186 34.9219C17.5565 34.7705 17.4084 34.3817 17.6183 34.0179C17.886 33.5542 18.4391 33.0307 19.1692 32.5141C19.1459 32.805 19.1137 33.0882 19.071 33.3568C18.964 34.0304 18.8162 34.4442 18.7012 34.6434ZM21.5689 28.4238C21.5689 28.4238 20.4658 28.8408 19.1629 29.5708C17.8007 30.3339 16.2202 31.4392 15.4534 32.7676C14.5748 34.29 15.0742 36.2239 16.5689 37.0871C18.0636 37.9504 19.9875 37.4161 20.8661 35.8937C21.5648 34.6832 21.725 32.6968 21.7188 31.0766C21.7132 29.5976 21.5689 28.4238 21.5689 28.4238Z" fill="black"/>
</svg>
